<svg xmlns="http://www.w3.org/2000/svg" xmlns:xlink="http://www.w3.org/1999/xlink" width="500" zoomAndPan="magnify" viewBox="0 0 375 374.999991" height="500" preserveAspectRatio="xMidYMid meet" version="1.0"><defs><g/><clipPath id="4299e6c0b9"><path d="M 75.6875 136.488281 L 299.1875 136.488281 L 299.1875 173 L 75.6875 173 Z M 75.6875 136.488281 " clip-rule="nonzero"/></clipPath><clipPath id="ae4ba90f56"><path d="M 75.6875 202 L 299.1875 202 L 299.1875 238.488281 L 75.6875 238.488281 Z M 75.6875 202 " clip-rule="nonzero"/></clipPath></defs><g clip-path="url(#4299e6c0b9)"><path fill="#ffffff" d="M 77.757812 172.554688 L 77.757812 138.035156 L 297.238281 138.035156 L 297.238281 172.554688 L 299.296875 172.554688 L 299.296875 136.488281 L 75.695312 136.488281 L 75.695312 172.554688 L 77.757812 172.554688 " fill-opacity="1" fill-rule="nonzero"/></g><g clip-path="url(#ae4ba90f56)"><path fill="#ffffff" d="M 297.238281 202.4375 L 297.238281 236.957031 L 77.757812 236.957031 L 77.757812 202.4375 L 75.695312 202.4375 L 75.695312 238.5 L 299.296875 238.5 L 299.296875 202.4375 L 297.238281 202.4375 " fill-opacity="1" fill-rule="nonzero"/></g><g fill="#ffffff" fill-opacity="1"><g transform="translate(83.997289, 194.249987)"><g><path d="M 0.5 0 L 5.558594 0 L 6.433594 -2.402344 L 13.832031 -2.402344 L 14.738281 0 L 19.765625 0 L 10.367188 -23.136719 L 9.898438 -23.136719 Z M 8.054688 -6.589844 L 10.148438 -12.394531 L 12.175781 -6.589844 Z M 8.054688 -6.589844 "/></g></g></g><g fill="#ffffff" fill-opacity="1"><g transform="translate(106.350503, 194.249987)"><g><path d="M 7.960938 0 L 12.394531 0 L 12.394531 -10.054688 L 20.199219 -22.324219 L 14.738281 -22.324219 L 10.179688 -14.644531 L 5.621094 -22.324219 L 0.1875 -22.324219 L 7.960938 -10.054688 Z M 7.960938 0 "/></g></g></g><g fill="#ffffff" fill-opacity="1"><g transform="translate(128.578839, 194.249987)"><g><path d="M 13.238281 0.3125 C 28.601562 0.3125 28.601562 -22.699219 13.238281 -22.699219 C -2.125 -22.699219 -2.125 0.3125 13.238281 0.3125 Z M 13.238281 -4.308594 C 4.308594 -4.308594 4.308594 -18.109375 13.238281 -18.109375 C 22.167969 -18.109375 22.167969 -4.308594 13.238281 -4.308594 Z M 13.238281 -4.308594 "/></g></g></g><g fill="#ffffff" fill-opacity="1"><g transform="translate(156.988491, 194.249987)"><g/></g></g><g fill="#ffffff" fill-opacity="1"><g transform="translate(167.821982, 194.249987)"><g><path d="M 9.148438 -22.324219 L 2.496094 -22.324219 L 2.496094 0 L 9.148438 0 C 24.011719 0 24.011719 -22.324219 9.148438 -22.324219 Z M 9.148438 -17.859375 C 17.828125 -17.859375 17.828125 -4.464844 9.148438 -4.464844 L 6.960938 -4.464844 L 6.960938 -17.859375 Z M 9.148438 -17.859375 "/></g></g></g><g fill="#ffffff" fill-opacity="1"><g transform="translate(191.767358, 194.249987)"><g><path d="M 13.238281 0.3125 C 28.601562 0.3125 28.601562 -22.699219 13.238281 -22.699219 C -2.125 -22.699219 -2.125 0.3125 13.238281 0.3125 Z M 13.238281 -4.308594 C 4.308594 -4.308594 4.308594 -18.109375 13.238281 -18.109375 C 22.167969 -18.109375 22.167969 -4.308594 13.238281 -4.308594 Z M 13.238281 -4.308594 "/></g></g></g><g fill="#ffffff" fill-opacity="1"><g transform="translate(220.177017, 194.249987)"><g><path d="M 2.496094 -22.324219 L 2.496094 0 L 14.050781 0 L 14.050781 -4.464844 L 6.960938 -4.464844 L 6.960938 -22.324219 Z M 2.496094 -22.324219 "/></g></g></g><g fill="#ffffff" fill-opacity="1"><g transform="translate(237.535231, 194.249987)"><g><path d="M 0.5 0 L 5.558594 0 L 6.433594 -2.402344 L 13.832031 -2.402344 L 14.738281 0 L 19.765625 0 L 10.367188 -23.136719 L 9.898438 -23.136719 Z M 8.054688 -6.589844 L 10.148438 -12.394531 L 12.175781 -6.589844 Z M 8.054688 -6.589844 "/></g></g></g><g fill="#ffffff" fill-opacity="1"><g transform="translate(259.888448, 194.249987)"><g><path d="M 6.960938 -12.144531 L 18.265625 0.46875 L 19.453125 0.46875 L 19.453125 -22.292969 L 14.957031 -22.292969 L 14.957031 -9.679688 L 3.683594 -22.792969 L 2.496094 -22.792969 L 2.496094 0 L 6.960938 0 Z M 6.960938 -12.144531 "/></g></g></g><g fill="#ffffff" fill-opacity="1"><g transform="translate(283.833824, 194.249987)"><g><path d="M 2 -22.324219 L 2 -14.050781 C 2.21875 -11.613281 2.402344 -8.898438 2.652344 -6.679688 L 6.183594 -6.679688 C 6.433594 -8.898438 6.621094 -11.613281 6.804688 -14.050781 L 6.804688 -22.324219 Z M 6.960938 -2.277344 C 6.960938 -5.589844 1.84375 -5.589844 1.84375 -2.277344 C 1.84375 1.03125 6.960938 1.03125 6.960938 -2.277344 Z M 6.960938 -2.277344 "/></g></g></g></svg>